<svg width="1087" height="746" fill="none" xmlns="http://www.w3.org/2000/svg"><g opacity=".2"><path d="M39.03 489.836C-39.376 285.483 339.587-53.744 669.546 19.824 983.991 90.12 1170.21 357.416 971.74 565.856c-271.158 286.093-834.702 179.013-932.71-76.02Z" fill="#fff" style="mix-blend-mode:screen" opacity=".5"/></g><g opacity=".2"><path d="M691.257 422.461c143.77-16.912 173.183-111.108 147.299-193.557-16.941-53.323-99.767-163.725-286.127-166.074-61.884-.705-140.945 15.268-205.652 60.369-148.24 103.121-116.475 284.932 18.588 312.417 79.532 16.206 224.007-1.175 325.892-13.155Z" fill="#fff" style="mix-blend-mode:screen" opacity=".5"/></g><g opacity=".2"><path d="M405.839 276.907c12.812 137.817 92.659 191.252 229.786 135.347 101.94-41.56 128.872-155.013 40.03-201.034-51.525-26.69-70.386-36.602-112.209-53.754-41.289-16.938-172.686-42.791-157.607 119.441Z" fill="#fff" style="mix-blend-mode:screen" opacity=".5"/></g></svg>